<svg width="280" height="360" viewBox="0 0 280 360" fill="none" xmlns="http://www.w3.org/2000/svg">
<g filter="url(#filter0_b)">
<rect width="280" height="360" fill="url(#paint0_linear)"/>
<g filter="url(#filter1_d)">
<path d="M117 182.736V159.264H125.064C126.36 159.264 127.572 159.396 128.7 159.66C129.828 159.9 130.812 160.32 131.652 160.92C132.492 161.496 133.152 162.276 133.632 163.26C134.136 164.22 134.388 165.408 134.388 166.824C134.388 168.192 134.136 169.38 133.632 170.388C133.152 171.396 132.492 172.224 131.652 172.872C130.812 173.52 129.84 174 128.736 174.312C127.632 174.624 126.456 174.78 125.208 174.78H122.292V182.736H117ZM122.292 170.568H124.884C127.764 170.568 129.204 169.32 129.204 166.824C129.204 165.6 128.82 164.736 128.052 164.232C127.284 163.728 126.18 163.476 124.74 163.476H122.292V170.568ZM144.908 183.168C143.78 183.168 142.688 182.964 141.632 182.556C140.576 182.124 139.64 181.512 138.824 180.72C138.032 179.928 137.396 178.956 136.916 177.804C136.436 176.628 136.196 175.296 136.196 173.808C136.196 172.32 136.436 171 136.916 169.848C137.396 168.672 138.032 167.688 138.824 166.896C139.64 166.104 140.576 165.504 141.632 165.096C142.688 164.664 143.78 164.448 144.908 164.448C146.036 164.448 147.116 164.664 148.148 165.096C149.204 165.504 150.128 166.104 150.92 166.896C151.736 167.688 152.384 168.672 152.864 169.848C153.344 171 153.584 172.32 153.584 173.808C153.584 175.296 153.344 176.628 152.864 177.804C152.384 178.956 151.736 179.928 150.92 180.72C150.128 181.512 149.204 182.124 148.148 182.556C147.116 182.964 146.036 183.168 144.908 183.168ZM144.908 178.884C145.988 178.884 146.804 178.428 147.356 177.516C147.908 176.604 148.184 175.368 148.184 173.808C148.184 172.248 147.908 171.012 147.356 170.1C146.804 169.188 145.988 168.732 144.908 168.732C143.804 168.732 142.976 169.188 142.424 170.1C141.896 171.012 141.632 172.248 141.632 173.808C141.632 175.368 141.896 176.604 142.424 177.516C142.976 178.428 143.804 178.884 144.908 178.884ZM157.209 182.736V157.5H162.357V171.972H162.501L168.153 164.88H173.913L167.649 172.224L174.381 182.736H168.657L164.625 175.788L162.357 178.344V182.736H157.209ZM183.904 183.168C182.632 183.168 181.444 182.964 180.34 182.556C179.236 182.124 178.276 181.512 177.46 180.72C176.644 179.904 176.008 178.92 175.552 177.768C175.096 176.616 174.868 175.296 174.868 173.808C174.868 172.368 175.108 171.072 175.588 169.92C176.068 168.744 176.692 167.76 177.46 166.968C178.252 166.152 179.152 165.528 180.16 165.096C181.168 164.664 182.212 164.448 183.292 164.448C184.564 164.448 185.668 164.664 186.604 165.096C187.564 165.528 188.356 166.128 188.98 166.896C189.628 167.664 190.108 168.576 190.42 169.632C190.732 170.664 190.888 171.792 190.888 173.016C190.888 173.496 190.864 173.952 190.816 174.384C190.768 174.816 190.72 175.14 190.672 175.356H179.98C180.22 176.652 180.748 177.612 181.564 178.236C182.404 178.836 183.424 179.136 184.624 179.136C185.896 179.136 187.18 178.74 188.476 177.948L190.24 181.152C189.328 181.776 188.308 182.268 187.18 182.628C186.076 182.988 184.984 183.168 183.904 183.168ZM179.944 171.864H186.388C186.388 170.856 186.16 170.04 185.704 169.416C185.248 168.792 184.48 168.48 183.4 168.48C182.56 168.48 181.816 168.756 181.168 169.308C180.544 169.86 180.136 170.712 179.944 171.864ZM183.652 162.144L181.06 159.552L186.604 153L190.168 156.492L183.652 162.144ZM200.485 170.856L199.909 173.016H204.913L204.373 170.856C204.037 169.68 203.713 168.432 203.401 167.112C203.089 165.792 202.777 164.52 202.465 163.296H202.321C202.033 164.544 201.733 165.828 201.421 167.148C201.133 168.444 200.821 169.68 200.485 170.856ZM191.989 182.736L199.333 159.264H205.705L213.049 182.736H207.433L205.993 177.156H198.829L197.389 182.736H191.989ZM215.613 182.736V159.264H223.677C224.973 159.264 226.185 159.396 227.313 159.66C228.441 159.9 229.425 160.32 230.265 160.92C231.105 161.496 231.765 162.276 232.245 163.26C232.749 164.22 233.001 165.408 233.001 166.824C233.001 168.192 232.749 169.38 232.245 170.388C231.765 171.396 231.105 172.224 230.265 172.872C229.425 173.52 228.453 174 227.349 174.312C226.245 174.624 225.069 174.78 223.821 174.78H220.905V182.736H215.613ZM220.905 170.568H223.497C226.377 170.568 227.817 169.32 227.817 166.824C227.817 165.6 227.433 164.736 226.665 164.232C225.897 163.728 224.793 163.476 223.353 163.476H220.905V170.568ZM237.059 182.736V159.264H242.351V182.736H237.059Z" fill="white"/>
</g>
<g filter="url(#filter2_d)">
<path d="M62 168.333C62 170.543 62.878 172.663 64.4408 174.226C66.0036 175.789 68.1232 176.667 70.3333 176.667C72.5434 176.667 74.6631 175.789 76.2259 174.226C77.7887 172.663 78.6666 170.543 78.6666 168.333C78.6666 166.123 77.7887 164.004 76.2259 162.441C74.6631 160.878 72.5434 160 70.3333 160C68.1232 160 66.0036 160.878 64.4408 162.441C62.878 164.004 62 166.123 62 168.333ZM37 168.333C37 186.733 51.9333 201.667 70.3333 201.667C88.7333 201.667 103.667 186.733 103.667 168.333C103.667 149.933 88.7333 135 70.3333 135C51.9333 135 37 149.933 37 168.333ZM43.6666 168.333H57C57 160.967 62.9666 155 70.3333 155C77.7 155 83.6666 160.967 83.6666 168.333H97C97 183.033 85.0333 195 70.3333 195C55.6333 195 43.6666 183.033 43.6666 168.333Z" fill="#448BFA" fill-opacity="0.8" shape-rendering="crispEdges"/>
</g>
</g>
<defs>
<filter id="filter0_b" x="-4" y="-4" width="288" height="368" filterUnits="userSpaceOnUse" color-interpolation-filters="sRGB">
<feFlood flood-opacity="0" result="BackgroundImageFix"/>
<feGaussianBlur in="BackgroundImage" stdDeviation="2"/>
<feComposite in2="SourceAlpha" operator="in" result="effect1_backgroundBlur"/>
<feBlend mode="normal" in="SourceGraphic" in2="effect1_backgroundBlur" result="shape"/>
</filter>
<filter id="filter1_d" x="113" y="153" width="133.351" height="38.168" filterUnits="userSpaceOnUse" color-interpolation-filters="sRGB">
<feFlood flood-opacity="0" result="BackgroundImageFix"/>
<feColorMatrix in="SourceAlpha" type="matrix" values="0 0 0 0 0 0 0 0 0 0 0 0 0 0 0 0 0 0 127 0" result="hardAlpha"/>
<feOffset dy="4"/>
<feGaussianBlur stdDeviation="2"/>
<feComposite in2="hardAlpha" operator="out"/>
<feColorMatrix type="matrix" values="0 0 0 0 0 0 0 0 0 0 0 0 0 0 0 0 0 0 0.25 0"/>
<feBlend mode="normal" in2="BackgroundImageFix" result="effect1_dropShadow"/>
<feBlend mode="normal" in="SourceGraphic" in2="effect1_dropShadow" result="shape"/>
</filter>
<filter id="filter2_d" x="33" y="135" width="74.6666" height="74.6666" filterUnits="userSpaceOnUse" color-interpolation-filters="sRGB">
<feFlood flood-opacity="0" result="BackgroundImageFix"/>
<feColorMatrix in="SourceAlpha" type="matrix" values="0 0 0 0 0 0 0 0 0 0 0 0 0 0 0 0 0 0 127 0" result="hardAlpha"/>
<feOffset dy="4"/>
<feGaussianBlur stdDeviation="2"/>
<feComposite in2="hardAlpha" operator="out"/>
<feColorMatrix type="matrix" values="0 0 0 0 0 0 0 0 0 0 0 0 0 0 0 0 0 0 0.25 0"/>
<feBlend mode="normal" in2="BackgroundImageFix" result="effect1_dropShadow"/>
<feBlend mode="normal" in="SourceGraphic" in2="effect1_dropShadow" result="shape"/>
</filter>
<linearGradient id="paint0_linear" x1="239" y1="36.5" x2="131.5" y2="360" gradientUnits="userSpaceOnUse">
<stop stop-color="#424242"/>
<stop offset="1" stop-color="#424242" stop-opacity="0.42"/>
</linearGradient>
</defs>
</svg>
