<svg width="50" height="58" viewBox="0 0 50 58" fill="none" xmlns="http://www.w3.org/2000/svg">
<path d="M50 8.16328V13.2653C50 17.7615 38.8021 21.4286 25 21.4286C11.1979 21.4286 0 17.7615 0 13.2653V8.16328C0 3.66708 11.1979 0 25 0C38.8021 0 50 3.66708 50 8.16328ZM50 19.6429V31.1224C50 35.6186 38.8021 39.2857 25 39.2857C11.1979 39.2857 0 35.6186 0 31.1224V19.6429C5.37109 23.3419 15.2018 25.0638 25 25.0638C34.7982 25.0638 44.6288 23.3419 50 19.6429ZM50 37.5V48.9796C50 53.4758 38.8021 57.1429 25 57.1429C11.1979 57.1429 0 53.4758 0 48.9796V37.5C5.37109 41.199 15.2018 42.921 25 42.921C34.7982 42.921 44.6288 41.199 50 37.5Z" fill="#8257E6"/>
</svg>
