<svg width="649" height="565" viewBox="0 0 649 565" fill="none" xmlns="http://www.w3.org/2000/svg">
<g clip-path="url(#clip0)">
<path d="M585.164 294.035C585.248 363.948 558.211 431.171 509.736 481.573C506.814 484.631 503.813 487.616 500.732 490.526C496.04 494.988 491.189 499.277 486.181 503.392C439.332 541.971 380.845 563.65 320.158 564.931C318.135 564.977 316.106 565 314.068 565C265.668 565 204.793 539.161 149.548 503.392C144.977 500.433 140.447 497.406 135.958 494.309C133.86 492.875 131.772 491.421 129.693 489.947C108.386 474.909 88.1617 458.395 69.1686 440.526C56.7332 428.862 45.072 416.399 34.2593 403.217C-8.18901 350.884 -17.5516 303.728 42.9656 294.035C50.1306 292.891 57.0845 291.668 63.8273 290.367C73.5944 288.491 82.9417 286.464 91.8693 284.288C103.895 281.367 115.193 278.2 125.764 274.786C129.32 273.642 132.794 272.475 136.187 271.285C186.35 253.675 219.924 230.712 242.777 205.795C246.653 201.578 250.227 197.31 253.498 192.99C258.502 186.416 263.048 179.505 267.103 172.307C272.7 162.306 277.4 151.829 281.151 141L281.357 140.405C299.54 87.9799 294.008 39.3528 314.068 23.0777C399.82 -46.4997 506.577 52.5849 556.687 169.432C559.212 175.32 561.588 181.243 563.814 187.202C564.813 189.864 565.777 192.53 566.706 195.202C569.147 202.165 571.363 209.146 573.352 216.145C574.115 218.814 574.842 221.481 575.534 224.145C576.274 227.02 576.984 229.888 577.64 232.755C582.516 253.751 585.164 274.458 585.164 294.035Z" fill="#F2F2F2"/>
<path d="M320.158 564.931C318.135 564.977 316.106 565 314.068 565C265.668 565 204.793 539.161 149.548 503.392C144.977 500.433 140.447 497.406 135.958 494.309L139.895 470.362L259.091 454.544L318.914 500.266L320.158 564.931Z" fill="#2F2E41"/>
<path d="M325.896 137.316H308.91C308.384 137.317 307.88 137.526 307.508 137.897C307.136 138.269 306.927 138.773 306.926 139.299V156.284C306.927 156.544 306.978 156.801 307.078 157.041C307.178 157.281 307.324 157.499 307.508 157.682C307.693 157.866 307.911 158.011 308.152 158.11C308.392 158.209 308.65 158.26 308.91 158.259H325.896C326.42 158.259 326.924 158.051 327.296 157.681C327.668 157.311 327.878 156.808 327.88 156.284V139.299C327.878 138.774 327.668 138.27 327.297 137.899C326.925 137.527 326.421 137.318 325.896 137.316Z" fill="white"/>
<path d="M325.896 166.259H308.91C308.384 166.26 307.88 166.468 307.508 166.84C307.136 167.212 306.927 167.716 306.926 168.242V185.227C306.927 185.487 306.978 185.744 307.078 185.984C307.178 186.224 307.324 186.442 307.508 186.625C307.693 186.809 307.911 186.954 308.152 187.053C308.392 187.152 308.65 187.203 308.91 187.202H325.896C326.42 187.202 326.924 186.994 327.296 186.624C327.668 186.254 327.878 185.751 327.88 185.227V168.242C327.878 167.717 327.669 167.213 327.297 166.842C326.925 166.47 326.421 166.261 325.896 166.259Z" fill="#E6E6E6"/>
<path d="M325.896 195.202H308.91C308.384 195.202 307.88 195.411 307.508 195.783C307.136 196.155 306.927 196.659 306.926 197.185V214.162C306.926 214.422 306.977 214.68 307.076 214.921C307.176 215.162 307.322 215.381 307.506 215.565C307.691 215.749 307.909 215.895 308.15 215.995C308.391 216.094 308.65 216.145 308.91 216.145H325.896C326.422 216.144 326.926 215.935 327.298 215.564C327.67 215.192 327.879 214.688 327.88 214.162V197.185C327.878 196.66 327.669 196.156 327.297 195.785C326.925 195.413 326.421 195.204 325.896 195.202Z" fill="#E6E6E6"/>
<path d="M327.849 225.777C327.764 225.32 327.523 224.907 327.166 224.61C326.81 224.312 326.36 224.147 325.896 224.145H308.91C308.384 224.145 307.88 224.354 307.508 224.726C307.136 225.098 306.927 225.602 306.926 226.128V243.105C306.926 243.365 306.977 243.623 307.076 243.864C307.176 244.105 307.322 244.324 307.506 244.508C307.691 244.692 307.909 244.838 308.15 244.938C308.391 245.037 308.65 245.088 308.91 245.088H325.896C326.422 245.087 326.926 244.878 327.298 244.507C327.67 244.135 327.879 243.631 327.88 243.105V226.128C327.881 226.01 327.871 225.893 327.849 225.777Z" fill="#E6E6E6"/>
<path d="M326.666 253.241C326.422 253.139 326.16 253.088 325.896 253.088H308.91C308.65 253.087 308.391 253.138 308.15 253.238C307.909 253.337 307.691 253.483 307.506 253.668C307.322 253.852 307.176 254.071 307.076 254.311C306.977 254.552 306.926 254.81 306.926 255.071V272.048C306.925 272.308 306.976 272.567 307.075 272.808C307.174 273.049 307.32 273.268 307.505 273.452C307.689 273.637 307.908 273.783 308.15 273.882C308.391 273.981 308.649 274.032 308.91 274.031H325.896C326.422 274.03 326.926 273.821 327.298 273.45C327.67 273.078 327.879 272.573 327.88 272.048V255.071C327.879 254.681 327.763 254.299 327.548 253.974C327.332 253.648 327.025 253.394 326.666 253.241Z" fill="#E6E6E6"/>
<path d="M361.576 137.316H344.59C344.064 137.317 343.56 137.526 343.188 137.897C342.816 138.269 342.607 138.773 342.606 139.299V156.284C342.607 156.544 342.658 156.801 342.758 157.041C342.858 157.281 343.004 157.499 343.188 157.682C343.373 157.866 343.591 158.011 343.832 158.11C344.072 158.209 344.33 158.26 344.59 158.259H361.576C362.101 158.259 362.604 158.051 362.976 157.681C363.348 157.311 363.558 156.808 363.56 156.284V139.299C363.558 138.774 363.349 138.27 362.977 137.899C362.605 137.527 362.101 137.318 361.576 137.316Z" fill="#E6E6E6"/>
<path d="M361.576 166.259H344.59C344.064 166.26 343.56 166.468 343.188 166.84C342.816 167.212 342.607 167.716 342.606 168.242V185.227C342.607 185.487 342.658 185.744 342.758 185.984C342.858 186.224 343.004 186.442 343.188 186.625C343.373 186.809 343.591 186.954 343.832 187.053C344.072 187.152 344.33 187.203 344.59 187.202H361.576C362.101 187.202 362.604 186.994 362.976 186.624C363.348 186.254 363.558 185.751 363.56 185.227V168.242C363.558 167.717 363.349 167.213 362.977 166.842C362.605 166.47 362.101 166.261 361.576 166.259Z" fill="#3CDE87"/>
<path d="M361.576 195.202H344.59C344.064 195.202 343.56 195.411 343.188 195.783C342.816 196.155 342.607 196.659 342.606 197.185V214.162C342.606 214.422 342.657 214.68 342.756 214.921C342.856 215.162 343.002 215.381 343.186 215.565C343.371 215.749 343.59 215.895 343.83 215.995C344.071 216.094 344.33 216.145 344.59 216.145H361.576C362.102 216.144 362.606 215.935 362.978 215.564C363.35 215.192 363.559 214.688 363.56 214.162V197.185C363.558 196.66 363.349 196.156 362.977 195.785C362.605 195.413 362.101 195.204 361.576 195.202Z" fill="#3CDE87"/>
<path d="M361.576 224.145H344.59C344.174 224.145 343.769 224.277 343.432 224.52C343.095 224.764 342.844 225.108 342.713 225.502C342.643 225.703 342.606 225.915 342.606 226.128V243.105C342.606 243.365 342.657 243.623 342.756 243.864C342.856 244.105 343.002 244.324 343.186 244.508C343.371 244.692 343.589 244.838 343.83 244.938C344.071 245.037 344.33 245.088 344.59 245.088H361.576C362.102 245.087 362.606 244.878 362.978 244.507C363.35 244.135 363.559 243.631 363.56 243.105V226.128C363.558 225.602 363.349 225.099 362.977 224.727C362.605 224.356 362.101 224.147 361.576 224.145Z" fill="#3CDE87"/>
<path d="M361.576 253.088H344.59C344.33 253.087 344.071 253.138 343.83 253.238C343.59 253.337 343.371 253.483 343.186 253.668C343.002 253.852 342.856 254.071 342.756 254.311C342.657 254.552 342.606 254.81 342.606 255.071V272.048C342.606 272.308 342.657 272.566 342.756 272.807C342.856 273.048 343.002 273.267 343.186 273.451C343.371 273.635 343.59 273.781 343.83 273.881C344.071 273.98 344.33 274.031 344.59 274.031H361.576C362.102 274.03 362.606 273.821 362.978 273.45C363.35 273.078 363.559 272.573 363.56 272.048V255.071C363.559 254.545 363.35 254.041 362.978 253.669C362.606 253.297 362.102 253.088 361.576 253.088Z" fill="#E6E6E6"/>
<path d="M397.256 137.316H380.27C379.744 137.317 379.24 137.526 378.868 137.897C378.496 138.269 378.287 138.773 378.286 139.299V156.284C378.287 156.544 378.338 156.801 378.438 157.041C378.538 157.281 378.684 157.499 378.869 157.682C379.053 157.866 379.271 158.011 379.512 158.11C379.753 158.209 380.01 158.26 380.27 158.259H397.256C397.781 158.259 398.284 158.051 398.656 157.681C399.028 157.311 399.238 156.808 399.24 156.284V139.299C399.238 138.774 399.029 138.27 398.657 137.899C398.285 137.527 397.781 137.318 397.256 137.316Z" fill="#3CDE87"/>
<path d="M397.256 166.259H380.27C379.744 166.26 379.24 166.468 378.868 166.84C378.496 167.212 378.287 167.716 378.286 168.242V185.227C378.287 185.487 378.338 185.744 378.438 185.984C378.538 186.224 378.684 186.442 378.869 186.625C379.053 186.809 379.271 186.954 379.512 187.053C379.753 187.152 380.01 187.203 380.27 187.202H397.256C397.781 187.202 398.284 186.994 398.656 186.624C399.028 186.254 399.238 185.751 399.24 185.227V168.242C399.238 167.717 399.029 167.213 398.657 166.842C398.285 166.47 397.781 166.261 397.256 166.259Z" fill="#3CDE87"/>
<path d="M397.256 195.202H380.27C379.744 195.202 379.24 195.411 378.868 195.783C378.496 196.155 378.287 196.659 378.287 197.185V214.162C378.286 214.422 378.337 214.68 378.436 214.921C378.536 215.162 378.682 215.381 378.866 215.565C379.051 215.749 379.27 215.895 379.511 215.995C379.751 216.094 380.01 216.145 380.27 216.145H397.256C397.782 216.144 398.286 215.935 398.658 215.564C399.03 215.192 399.239 214.688 399.24 214.162V197.185C399.238 196.66 399.029 196.156 398.657 195.785C398.285 195.413 397.781 195.204 397.256 195.202Z" fill="#E6E6E6"/>
<path d="M397.256 224.145H380.27C379.744 224.145 379.24 224.354 378.868 224.726C378.496 225.098 378.287 225.602 378.287 226.128V243.105C378.286 243.365 378.337 243.623 378.436 243.864C378.536 244.105 378.682 244.324 378.866 244.508C379.051 244.692 379.27 244.838 379.511 244.938C379.751 245.037 380.01 245.088 380.27 245.088H397.256C397.782 245.087 398.286 244.878 398.658 244.507C399.03 244.135 399.239 243.631 399.24 243.105V226.128C399.238 225.602 399.029 225.099 398.657 224.727C398.285 224.356 397.781 224.146 397.256 224.145Z" fill="#3CDE87"/>
<path d="M397.256 253.088H380.27C380.01 253.087 379.751 253.138 379.511 253.238C379.27 253.337 379.051 253.483 378.866 253.668C378.682 253.852 378.536 254.071 378.436 254.311C378.337 254.552 378.286 254.81 378.287 255.071V272.048C378.286 272.308 378.337 272.566 378.436 272.807C378.536 273.048 378.682 273.267 378.866 273.451C379.051 273.635 379.27 273.781 379.511 273.881C379.751 273.98 380.01 274.031 380.27 274.031H397.256C397.782 274.03 398.286 273.821 398.658 273.45C399.03 273.078 399.239 272.573 399.24 272.048V255.071C399.239 254.545 399.03 254.041 398.658 253.669C398.286 253.297 397.782 253.088 397.256 253.088Z" fill="#3CDE87"/>
<path d="M432.936 137.316H415.95C415.424 137.317 414.92 137.526 414.548 137.897C414.176 138.269 413.967 138.773 413.966 139.299V156.284C413.967 156.544 414.018 156.801 414.118 157.041C414.218 157.281 414.364 157.499 414.549 157.682C414.733 157.866 414.951 158.011 415.192 158.11C415.433 158.209 415.69 158.26 415.95 158.259H432.936C433.461 158.259 433.964 158.051 434.336 157.681C434.708 157.311 434.918 156.808 434.92 156.284V139.299C434.918 138.774 434.709 138.27 434.337 137.899C433.965 137.527 433.461 137.318 432.936 137.316Z" fill="#3CDE87"/>
<path d="M432.936 166.259H415.95C415.424 166.259 414.92 166.468 414.548 166.84C414.176 167.212 413.967 167.716 413.966 168.242V185.227C413.967 185.487 414.018 185.744 414.118 185.984C414.218 186.224 414.364 186.442 414.549 186.625C414.733 186.809 414.951 186.954 415.192 187.053C415.433 187.152 415.69 187.203 415.95 187.202H432.936C433.461 187.202 433.964 186.994 434.336 186.624C434.708 186.254 434.918 185.751 434.92 185.227V168.242C434.918 167.717 434.709 167.213 434.337 166.842C433.965 166.47 433.461 166.261 432.936 166.259Z" fill="white"/>
<path d="M432.936 195.202H415.95C415.424 195.202 414.92 195.411 414.548 195.783C414.176 196.155 413.967 196.659 413.966 197.185V214.162C413.966 214.422 414.017 214.68 414.116 214.921C414.216 215.162 414.362 215.381 414.546 215.565C414.731 215.749 414.95 215.895 415.191 215.995C415.431 216.094 415.69 216.145 415.95 216.145H432.936C433.462 216.144 433.966 215.935 434.338 215.564C434.71 215.192 434.92 214.688 434.92 214.162V197.185C434.918 196.66 434.709 196.156 434.337 195.785C433.965 195.413 433.461 195.204 432.936 195.202Z" fill="white"/>
<path d="M432.936 224.145H415.95C415.424 224.145 414.92 224.354 414.548 224.726C414.176 225.098 413.967 225.602 413.966 226.128V243.105C413.966 243.365 414.017 243.623 414.116 243.864C414.216 244.105 414.362 244.324 414.546 244.508C414.731 244.692 414.95 244.838 415.191 244.938C415.431 245.037 415.69 245.088 415.95 245.088H432.936C433.462 245.087 433.966 244.878 434.338 244.507C434.71 244.135 434.92 243.631 434.92 243.105V226.128C434.918 225.602 434.709 225.099 434.337 224.727C433.965 224.356 433.461 224.146 432.936 224.145Z" fill="#E6E6E6"/>
<path d="M432.936 253.088H415.95C415.69 253.087 415.431 253.138 415.191 253.238C414.95 253.337 414.731 253.483 414.546 253.668C414.362 253.852 414.216 254.071 414.116 254.311C414.017 254.552 413.966 254.81 413.966 255.071V272.048C413.966 272.308 414.017 272.566 414.116 272.807C414.216 273.048 414.362 273.267 414.546 273.451C414.731 273.635 414.95 273.781 415.191 273.881C415.431 273.98 415.69 274.031 415.95 274.031H432.936C433.462 274.03 433.966 273.821 434.338 273.45C434.71 273.078 434.92 272.573 434.92 272.048V255.071C434.92 254.545 434.71 254.041 434.338 253.669C433.966 253.297 433.462 253.088 432.936 253.088Z" fill="#3CDE87"/>
<path d="M468.616 137.316H451.623C451.098 137.318 450.595 137.528 450.225 137.9C449.854 138.271 449.646 138.775 449.646 139.299V156.284C449.647 156.807 449.855 157.31 450.225 157.68C450.596 158.051 451.099 158.259 451.623 158.259H468.616C469.141 158.259 469.644 158.051 470.016 157.681C470.388 157.311 470.598 156.808 470.6 156.284V139.299C470.598 138.774 470.389 138.27 470.017 137.899C469.645 137.527 469.141 137.318 468.616 137.316Z" fill="white"/>
<path d="M468.616 166.259H451.623C451.098 166.261 450.595 166.471 450.225 166.843C449.854 167.214 449.646 167.718 449.646 168.242V185.227C449.647 185.75 449.855 186.253 450.225 186.623C450.596 186.994 451.099 187.202 451.623 187.202H468.616C469.141 187.202 469.644 186.994 470.016 186.624C470.388 186.254 470.598 185.751 470.6 185.227V168.242C470.598 167.717 470.389 167.213 470.017 166.842C469.645 166.47 469.142 166.261 468.616 166.259Z" fill="white"/>
<path d="M468.616 195.202H451.623C451.098 195.204 450.595 195.414 450.225 195.785C449.854 196.157 449.646 196.66 449.646 197.185V214.162C449.646 214.422 449.696 214.679 449.795 214.92C449.894 215.16 450.04 215.379 450.223 215.563C450.407 215.747 450.625 215.893 450.865 215.993C451.105 216.093 451.363 216.144 451.623 216.145H468.616C469.142 216.144 469.646 215.935 470.018 215.564C470.39 215.192 470.6 214.688 470.6 214.162V197.185C470.598 196.66 470.389 196.156 470.017 195.785C469.645 195.413 469.142 195.204 468.616 195.202Z" fill="white"/>
<path d="M468.616 224.145H451.623C451.098 224.147 450.595 224.357 450.225 224.728C449.854 225.1 449.646 225.603 449.646 226.128V243.105C449.646 243.365 449.696 243.622 449.795 243.863C449.894 244.103 450.04 244.322 450.223 244.506C450.407 244.69 450.625 244.836 450.865 244.936C451.105 245.036 451.363 245.087 451.623 245.088H468.616C469.142 245.087 469.646 244.878 470.018 244.507C470.39 244.135 470.6 243.631 470.6 243.105V226.128C470.598 225.602 470.389 225.099 470.017 224.727C469.645 224.356 469.142 224.146 468.616 224.145Z" fill="#3CDE87"/>
<path d="M468.616 253.088H451.623C451.363 253.088 451.105 253.14 450.865 253.24C450.625 253.339 450.407 253.486 450.223 253.67C450.04 253.854 449.894 254.072 449.795 254.313C449.696 254.553 449.646 254.811 449.646 255.071V272.048C449.646 272.308 449.696 272.565 449.795 272.806C449.894 273.046 450.04 273.265 450.223 273.449C450.407 273.633 450.625 273.779 450.865 273.879C451.105 273.979 451.363 274.03 451.623 274.031H468.616C469.142 274.03 469.646 273.821 470.018 273.45C470.39 273.078 470.6 272.573 470.6 272.048V255.071C470.6 254.545 470.39 254.041 470.018 253.669C469.646 253.297 469.142 253.088 468.616 253.088Z" fill="#E6E6E6"/>
<path d="M504.296 137.316H487.303C486.778 137.318 486.275 137.528 485.905 137.9C485.534 138.271 485.326 138.775 485.326 139.299V156.284C485.327 156.807 485.535 157.31 485.905 157.68C486.276 158.051 486.779 158.259 487.303 158.259H504.296C504.821 158.259 505.324 158.051 505.696 157.681C506.068 157.311 506.278 156.808 506.28 156.284V139.299C506.278 138.774 506.069 138.27 505.697 137.899C505.325 137.527 504.822 137.318 504.296 137.316Z" fill="white"/>
<path d="M504.296 166.259H487.303C486.778 166.261 486.275 166.471 485.905 166.843C485.534 167.214 485.326 167.718 485.326 168.242V185.227C485.327 185.75 485.535 186.253 485.905 186.623C486.276 186.994 486.779 187.202 487.303 187.202H504.296C504.821 187.202 505.324 186.994 505.696 186.624C506.068 186.254 506.278 185.751 506.28 185.227V168.242C506.278 167.717 506.069 167.213 505.697 166.842C505.325 166.47 504.822 166.261 504.296 166.259Z" fill="white"/>
<path d="M504.296 195.202H487.303C486.778 195.204 486.275 195.414 485.905 195.785C485.534 196.157 485.326 196.66 485.326 197.185V214.162C485.326 214.422 485.376 214.679 485.475 214.92C485.574 215.16 485.72 215.379 485.903 215.563C486.087 215.747 486.305 215.893 486.545 215.993C486.785 216.093 487.043 216.144 487.303 216.145H504.296C504.822 216.144 505.326 215.935 505.698 215.564C506.07 215.192 506.28 214.688 506.28 214.162V197.185C506.278 196.66 506.069 196.156 505.697 195.785C505.325 195.413 504.822 195.204 504.296 195.202Z" fill="#3CDE87"/>
<path d="M504.296 224.145H487.303C486.778 224.147 486.275 224.357 485.905 224.728C485.534 225.1 485.326 225.603 485.326 226.128V243.105C485.326 243.365 485.376 243.622 485.475 243.863C485.574 244.103 485.72 244.322 485.903 244.506C486.087 244.69 486.305 244.836 486.545 244.936C486.785 245.036 487.043 245.087 487.303 245.088H504.296C504.822 245.087 505.326 244.878 505.698 244.507C506.07 244.135 506.28 243.631 506.28 243.105V226.128C506.278 225.602 506.069 225.099 505.697 224.727C505.325 224.356 504.822 224.147 504.296 224.145Z" fill="#E6E6E6"/>
<path d="M504.296 253.088H487.303C487.043 253.088 486.785 253.14 486.545 253.24C486.305 253.339 486.087 253.486 485.903 253.67C485.72 253.854 485.574 254.072 485.475 254.313C485.376 254.553 485.326 254.811 485.326 255.071V272.048C485.326 272.308 485.376 272.565 485.475 272.806C485.574 273.046 485.72 273.265 485.903 273.449C486.087 273.633 486.305 273.779 486.545 273.879C486.785 273.979 487.043 274.03 487.303 274.031H504.296C504.822 274.03 505.326 273.821 505.698 273.449C506.07 273.078 506.28 272.573 506.28 272.048V255.071C506.28 254.545 506.07 254.041 505.698 253.669C505.326 253.297 504.822 253.088 504.296 253.088Z" fill="white"/>
<path d="M539.976 137.316H522.983C522.458 137.318 521.955 137.528 521.585 137.9C521.214 138.271 521.006 138.775 521.007 139.299V156.284C521.007 156.807 521.215 157.31 521.586 157.68C521.956 158.051 522.459 158.259 522.983 158.259H539.976C540.501 158.259 541.004 158.051 541.376 157.681C541.748 157.311 541.958 156.808 541.96 156.284V139.299C541.958 138.774 541.749 138.27 541.377 137.899C541.005 137.527 540.502 137.318 539.976 137.316Z" fill="#3CDE87"/>
<path d="M539.976 166.259H522.983C522.458 166.261 521.955 166.471 521.585 166.843C521.214 167.214 521.006 167.718 521.007 168.242V185.227C521.007 185.75 521.215 186.253 521.586 186.623C521.956 186.994 522.459 187.202 522.983 187.202H539.976C540.501 187.202 541.004 186.994 541.376 186.624C541.748 186.254 541.958 185.751 541.96 185.227V168.242C541.958 167.717 541.749 167.213 541.377 166.842C541.005 166.47 540.502 166.261 539.976 166.259Z" fill="#3CDE87"/>
<path d="M539.976 195.202H522.983C522.458 195.204 521.955 195.414 521.585 195.785C521.214 196.157 521.006 196.66 521.007 197.185V214.162C521.006 214.422 521.056 214.679 521.155 214.92C521.254 215.16 521.4 215.379 521.583 215.563C521.767 215.747 521.985 215.893 522.225 215.993C522.465 216.093 522.723 216.144 522.983 216.145H539.976C540.502 216.144 541.006 215.935 541.378 215.564C541.751 215.192 541.96 214.688 541.96 214.162V197.185C541.958 196.66 541.749 196.156 541.377 195.785C541.005 195.413 540.502 195.204 539.976 195.202Z" fill="#E6E6E6"/>
<path d="M539.976 224.145H522.983C522.458 224.147 521.955 224.357 521.585 224.728C521.214 225.1 521.006 225.603 521.007 226.128V243.105C521.006 243.365 521.056 243.622 521.155 243.863C521.254 244.103 521.4 244.322 521.583 244.506C521.767 244.69 521.985 244.836 522.225 244.936C522.465 245.036 522.723 245.087 522.983 245.088H539.976C540.502 245.087 541.007 244.878 541.379 244.507C541.751 244.135 541.96 243.631 541.96 243.105V226.128C541.958 225.602 541.749 225.099 541.377 224.727C541.005 224.356 540.502 224.147 539.976 224.145Z" fill="white"/>
<path d="M539.976 253.088H522.983C522.723 253.088 522.465 253.14 522.225 253.24C521.985 253.339 521.767 253.486 521.583 253.67C521.4 253.854 521.254 254.072 521.155 254.313C521.056 254.553 521.006 254.811 521.007 255.071V272.048C521.006 272.308 521.056 272.565 521.155 272.806C521.254 273.046 521.4 273.265 521.583 273.449C521.767 273.633 521.985 273.779 522.225 273.879C522.465 273.979 522.723 274.03 522.983 274.031H539.976C540.502 274.03 541.007 273.821 541.379 273.449C541.751 273.078 541.96 272.573 541.96 272.048V255.071C541.96 254.545 541.751 254.041 541.379 253.669C541.007 253.297 540.502 253.088 539.976 253.088Z" fill="#3CDE87"/>
<path d="M575.656 137.316H558.663C558.138 137.318 557.635 137.528 557.265 137.9C556.894 138.271 556.686 138.775 556.687 139.299V156.284C556.687 156.807 556.895 157.31 557.266 157.68C557.636 158.051 558.139 158.259 558.663 158.259H575.656C576.181 158.259 576.684 158.051 577.056 157.681C577.428 157.311 577.638 156.808 577.64 156.284V139.299C577.638 138.774 577.429 138.27 577.057 137.899C576.685 137.527 576.182 137.318 575.656 137.316Z" fill="#3CDE87"/>
<path d="M575.656 166.259H558.663C558.138 166.261 557.635 166.471 557.265 166.843C556.894 167.214 556.686 167.718 556.687 168.242V185.227C556.687 185.75 556.895 186.253 557.266 186.623C557.636 186.994 558.139 187.202 558.663 187.202H575.656C576.181 187.202 576.684 186.994 577.056 186.624C577.428 186.254 577.638 185.751 577.64 185.227V168.242C577.638 167.717 577.429 167.213 577.057 166.842C576.685 166.47 576.182 166.261 575.656 166.259Z" fill="#3CDE87"/>
<path d="M575.656 195.202H558.663C558.138 195.204 557.635 195.414 557.265 195.785C556.894 196.157 556.686 196.66 556.687 197.185V214.162C556.686 214.422 556.736 214.679 556.835 214.92C556.934 215.16 557.08 215.379 557.263 215.563C557.447 215.747 557.665 215.893 557.905 215.993C558.145 216.093 558.403 216.144 558.663 216.145H575.656C576.182 216.144 576.686 215.935 577.058 215.564C577.43 215.192 577.64 214.688 577.64 214.162V197.185C577.638 196.66 577.429 196.156 577.057 195.785C576.685 195.413 576.182 195.204 575.656 195.202Z" fill="#E6E6E6"/>
<path d="M575.656 224.145H558.663C558.138 224.147 557.635 224.357 557.265 224.728C556.894 225.1 556.686 225.603 556.687 226.128V243.105C556.686 243.365 556.736 243.622 556.835 243.863C556.934 244.103 557.08 244.322 557.263 244.506C557.447 244.69 557.665 244.836 557.905 244.936C558.145 245.036 558.403 245.087 558.663 245.088H575.656C576.182 245.087 576.687 244.878 577.059 244.507C577.431 244.135 577.64 243.631 577.64 243.105V226.128C577.638 225.602 577.429 225.099 577.057 224.727C576.685 224.356 576.182 224.147 575.656 224.145Z" fill="#3CDE87"/>
<path d="M575.656 253.088H558.663C558.403 253.088 558.145 253.14 557.905 253.24C557.665 253.339 557.447 253.486 557.263 253.67C557.08 253.854 556.934 254.072 556.835 254.313C556.736 254.553 556.686 254.811 556.687 255.071V272.048C556.686 272.308 556.736 272.565 556.835 272.806C556.934 273.046 557.08 273.265 557.263 273.449C557.447 273.633 557.665 273.779 557.905 273.879C558.145 273.979 558.403 274.03 558.663 274.031H575.656C576.182 274.03 576.687 273.821 577.059 273.449C577.431 273.078 577.64 272.573 577.64 272.048V255.071C577.64 254.545 577.431 254.041 577.059 253.669C576.687 253.297 576.182 253.088 575.656 253.088Z" fill="#3CDE87"/>
<path d="M611.336 137.316H594.343C593.818 137.318 593.315 137.528 592.945 137.9C592.574 138.271 592.367 138.775 592.367 139.299V156.284C592.367 156.807 592.575 157.31 592.946 157.68C593.316 158.051 593.819 158.259 594.343 158.259H611.336C611.861 158.259 612.364 158.051 612.736 157.681C613.108 157.311 613.318 156.808 613.32 156.284V139.299C613.318 138.774 613.109 138.27 612.737 137.899C612.365 137.527 611.862 137.318 611.336 137.316Z" fill="#E6E6E6"/>
<path d="M611.336 166.259H594.343C593.818 166.261 593.315 166.471 592.945 166.843C592.574 167.214 592.366 167.718 592.367 168.242V185.227C592.367 185.75 592.575 186.253 592.946 186.623C593.316 186.994 593.819 187.202 594.343 187.202H611.336C611.861 187.202 612.364 186.994 612.736 186.624C613.108 186.254 613.318 185.751 613.32 185.227V168.242C613.318 167.717 613.109 167.213 612.737 166.842C612.365 166.47 611.862 166.261 611.336 166.259Z" fill="#3CDE87"/>
<path d="M611.336 195.202H594.343C593.818 195.204 593.315 195.414 592.945 195.785C592.574 196.157 592.367 196.66 592.367 197.185V214.162C592.366 214.422 592.417 214.679 592.516 214.92C592.614 215.16 592.76 215.379 592.943 215.563C593.127 215.747 593.345 215.893 593.585 215.993C593.825 216.093 594.083 216.144 594.343 216.145H611.336C611.862 216.144 612.367 215.935 612.739 215.564C613.111 215.192 613.32 214.688 613.32 214.162V197.185C613.318 196.66 613.109 196.156 612.737 195.785C612.365 195.413 611.862 195.204 611.336 195.202Z" fill="#3CDE87"/>
<path d="M611.336 224.145H594.343C593.818 224.147 593.315 224.357 592.945 224.728C592.574 225.1 592.367 225.603 592.367 226.128V243.105C592.366 243.365 592.417 243.622 592.516 243.863C592.614 244.103 592.76 244.322 592.943 244.506C593.127 244.69 593.345 244.836 593.585 244.936C593.825 245.036 594.083 245.087 594.343 245.088H611.336C611.862 245.087 612.367 244.878 612.739 244.507C613.111 244.135 613.32 243.631 613.32 243.105V226.128C613.318 225.602 613.109 225.099 612.737 224.727C612.365 224.356 611.862 224.147 611.336 224.145Z" fill="#3CDE87"/>
<path d="M611.336 253.088H594.343C594.083 253.088 593.825 253.14 593.585 253.24C593.345 253.339 593.127 253.486 592.943 253.67C592.76 253.854 592.614 254.072 592.516 254.313C592.417 254.553 592.366 254.811 592.367 255.071V272.048C592.366 272.308 592.417 272.565 592.516 272.806C592.614 273.046 592.76 273.265 592.943 273.449C593.127 273.633 593.345 273.779 593.585 273.879C593.825 273.979 594.083 274.03 594.343 274.031H611.336C611.862 274.03 612.367 273.821 612.739 273.449C613.111 273.078 613.32 272.573 613.32 272.048V255.071C613.32 254.545 613.111 254.041 612.739 253.669C612.367 253.297 611.862 253.088 611.336 253.088Z" fill="#E6E6E6"/>
<path d="M647.016 137.316H630.023C629.498 137.318 628.995 137.528 628.625 137.9C628.254 138.271 628.046 138.775 628.047 139.299V156.284C628.047 156.807 628.255 157.31 628.626 157.68C628.996 158.051 629.499 158.259 630.023 158.259H647.016C647.541 158.259 648.045 158.051 648.416 157.681C648.788 157.311 648.998 156.808 649 156.284V139.299C648.998 138.774 648.789 138.27 648.417 137.899C648.045 137.527 647.542 137.318 647.016 137.316Z" fill="#E6E6E6"/>
<path d="M647.016 166.259H630.023C629.498 166.261 628.995 166.471 628.625 166.843C628.254 167.214 628.046 167.718 628.047 168.242V185.227C628.047 185.75 628.255 186.253 628.626 186.623C628.996 186.994 629.499 187.202 630.023 187.202H647.016C647.541 187.202 648.045 186.994 648.416 186.624C648.788 186.254 648.998 185.751 649 185.227V168.242C648.998 167.717 648.789 167.213 648.417 166.842C648.045 166.47 647.542 166.261 647.016 166.259Z" fill="#E6E6E6"/>
<path d="M647.016 195.202H630.023C629.498 195.204 628.995 195.414 628.625 195.785C628.254 196.157 628.046 196.66 628.047 197.185V214.162C628.046 214.422 628.097 214.679 628.195 214.92C628.294 215.16 628.44 215.379 628.623 215.563C628.807 215.747 629.025 215.893 629.265 215.993C629.505 216.093 629.763 216.144 630.023 216.145H647.016C647.542 216.144 648.047 215.935 648.419 215.564C648.791 215.192 649 214.688 649 214.162V197.185C648.998 196.66 648.789 196.156 648.417 195.785C648.045 195.413 647.542 195.204 647.016 195.202Z" fill="#3CDE87"/>
<path d="M647.016 224.145H630.023C629.498 224.147 628.995 224.357 628.625 224.728C628.254 225.1 628.046 225.603 628.047 226.128V243.105C628.046 243.365 628.097 243.622 628.195 243.863C628.294 244.103 628.44 244.322 628.623 244.506C628.807 244.69 629.025 244.836 629.265 244.936C629.505 245.036 629.763 245.087 630.023 245.088H647.016C647.542 245.087 648.047 244.878 648.419 244.507C648.791 244.135 649 243.631 649 243.105V226.128C648.998 225.602 648.789 225.099 648.417 224.727C648.045 224.356 647.542 224.147 647.016 224.145Z" fill="#E6E6E6"/>
<path d="M647.016 253.088H630.023C629.763 253.088 629.505 253.14 629.265 253.24C629.025 253.339 628.807 253.486 628.623 253.67C628.44 253.854 628.294 254.072 628.195 254.313C628.097 254.553 628.046 254.811 628.047 255.071V272.048C628.046 272.308 628.097 272.565 628.195 272.806C628.294 273.046 628.44 273.265 628.623 273.449C628.807 273.633 629.025 273.779 629.265 273.879C629.505 273.979 629.763 274.03 630.023 274.031H647.016C647.542 274.03 648.047 273.821 648.419 273.449C648.791 273.078 649 272.573 649 272.048V255.071C649 254.545 648.791 254.041 648.419 253.669C648.047 253.297 647.542 253.088 647.016 253.088Z" fill="#E6E6E6"/>
<path d="M256.456 503.394H255.983L256.387 503.34L256.456 503.394Z" fill="#2F2E41"/>
<path d="M215.801 186.893C244.593 186.893 267.933 163.564 267.933 134.787C267.933 106.009 244.593 82.6805 215.801 82.6805C187.008 82.6805 163.668 106.009 163.668 134.787C163.668 163.564 187.008 186.893 215.801 186.893Z" fill="#FFB6B6"/>
<path d="M261.455 96.5833C261.455 96.5833 275.09 70.5302 245.092 68.1617C245.092 68.1617 219.519 44.9752 193.452 63.9229C193.452 63.9229 179.234 63.9229 171.459 80.0041C171.459 80.0041 160.277 75.7652 157.82 87.1094C157.82 87.1094 149.637 110.794 157.82 132.11C166.002 153.427 168.72 155.795 168.72 155.795C168.72 155.795 155.274 111.104 188.002 108.736C220.73 106.367 257.353 85.9253 260.08 111.978C262.808 138.031 266.912 144.451 266.912 144.451C266.912 144.451 292.817 107.242 261.455 96.5833Z" fill="black"/>
<path d="M350.656 263.201L350.489 264.085L348.604 274.031L335.579 342.822L334.808 346.872L333.19 355.437L330.978 367.121L326.071 393.013L324.667 400.434L324.141 403.217L323.958 404.193L322.5 411.873L322.057 414.192L318.502 440.527L315.396 463.475L325.789 473.862L319.593 480.055L315.526 503.339L315.533 503.392H149.548C142.833 499.045 136.215 494.563 129.694 489.947L131.059 479.727C131.059 479.727 135.76 461.477 133.783 459.296C131.815 457.114 127.496 453.217 127.496 453.217L132.936 440.527L133.692 438.765L132.425 412.506L132.395 411.873L131.975 403.217L131.922 402.104L131.838 400.434L130.228 367.121L130.197 366.571L129.709 356.474L129.251 346.872L129.053 342.822L127.092 302.302L125.764 274.786L124.604 250.83L129.266 249.252L179.131 232.313L199.787 205.475L242.777 205.795L263.822 205.956L298.937 238.506L306.926 242.319L306.988 242.35L312.718 245.088L327.246 252.02L342.607 259.357L350.489 263.117L350.656 263.201Z" fill="#A8A8A8"/>
<path d="M205.343 425.221C202.192 426.441 198.813 426.955 195.442 426.729C192.071 426.502 188.791 425.539 185.833 423.908C182.874 422.277 180.31 420.018 178.32 417.289C176.33 414.56 174.962 411.429 174.314 408.115L93.0048 396.585L121.27 364.628L194.149 380.476C199.792 379.757 205.502 381.131 210.199 384.338C214.895 387.546 218.251 392.364 219.631 397.879C221.01 403.395 220.318 409.224 217.684 414.264C215.051 419.303 210.66 423.202 205.343 425.221V425.221Z" fill="#FFB6B6"/>
<path d="M169.09 367.121C167.583 365.212 165.451 363.897 163.069 363.406L129.709 356.474L126.283 355.765C124.292 355.349 122.411 354.518 120.763 353.326C119.116 352.134 117.738 350.608 116.722 348.847C115.667 346.999 115.029 344.943 114.852 342.822C114.693 340.894 114.924 338.954 115.531 337.118L127.091 302.302L134.592 279.712C135.501 276.988 136.038 274.153 136.187 271.285C136.605 263.348 134.148 255.526 129.266 249.252C124.974 243.737 119.021 239.749 112.287 237.875C105.553 236.002 98.3944 236.343 91.8692 238.849C91.6785 238.918 91.4801 238.994 91.2893 239.07C86.6098 240.938 82.4289 243.868 79.0771 247.628C75.7253 251.388 73.2945 255.876 71.9766 260.737L63.8273 290.367L47.0174 351.448C45.3346 357.568 44.9947 363.979 46.0208 370.242C47.0469 376.505 49.4148 382.473 52.9625 387.737C56.5102 393.001 61.1539 397.436 66.5757 400.74C71.9976 404.044 78.0696 406.137 84.3761 406.878L132.425 412.506L154.66 415.115C157.231 415.424 159.825 414.753 161.923 413.236C164.022 411.72 165.472 409.469 165.984 406.931C166.02 406.793 166.048 406.653 166.068 406.512L166.602 403.217L171.127 375.472L171.173 375.189C171.408 373.774 171.345 372.324 170.986 370.935C170.627 369.545 169.981 368.246 169.09 367.121Z" fill="#A8A8A8"/>
<path d="M257.133 426.11C260.424 426.874 263.843 426.907 267.148 426.207C270.453 425.508 273.564 424.092 276.263 422.061C278.962 420.029 281.182 417.431 282.767 414.449C284.352 411.467 285.264 408.174 285.438 404.802L364.308 381.927L331.816 354.273L261.901 380.235C256.214 380.318 250.755 382.483 246.558 386.321C242.361 390.158 239.718 395.401 239.13 401.056C238.543 406.711 240.051 412.385 243.369 417.002C246.687 421.62 251.584 424.861 257.133 426.11V426.11Z" fill="#FFB6B6"/>
<path d="M403.467 330.757L365.955 244.47C362.887 237.386 357.408 231.617 350.489 228.187C348.35 227.135 346.104 226.316 343.789 225.747C343.43 225.655 343.072 225.571 342.713 225.502C337.805 224.432 332.714 224.526 327.849 225.777C323.402 226.919 319.245 228.985 315.651 231.841C312.056 234.696 309.104 238.277 306.987 242.35C306.964 242.384 306.944 242.419 306.926 242.456C304.562 247.028 303.304 252.091 303.255 257.237C303.206 262.384 304.367 267.47 306.644 272.086L307.109 273.016L333.618 326.227C334.523 328.046 335.033 330.037 335.114 332.067C335.196 334.098 334.847 336.122 334.09 338.008C333.334 339.895 332.186 341.599 330.724 343.011C329.262 344.423 327.518 345.51 325.606 346.201L323.744 346.872L290.261 358.96C287.749 359.856 285.682 361.692 284.497 364.08C283.311 366.469 283.099 369.224 283.905 371.765L283.989 372.032L293.375 402.05C293.42 402.188 293.466 402.325 293.519 402.462C293.602 402.721 293.704 402.974 293.825 403.217C294.822 405.453 296.585 407.26 298.797 408.313C301.008 409.365 303.523 409.595 305.888 408.96L323.957 404.193L327.643 403.217L374.303 390.9C380.443 389.279 386.159 386.35 391.061 382.315C395.963 378.281 399.935 373.235 402.705 367.523C405.474 361.811 406.976 355.569 407.108 349.223C407.239 342.878 405.997 336.578 403.467 330.757L403.467 330.757Z" fill="#A8A8A8"/>
<path d="M34.2592 403.217C45.0719 416.399 56.7331 428.862 69.1686 440.527H414.043C417.365 440.532 420.55 441.854 422.899 444.203C425.248 446.552 426.569 449.736 426.572 453.057L427.068 540.404C448.284 530.662 468.153 518.222 486.181 503.392C491.187 499.282 496.037 494.993 500.732 490.526C503.807 487.613 506.809 484.629 509.736 481.573C531.684 458.72 549.457 432.2 562.249 403.217H34.2592Z" fill="#424242"/>
<path d="M509.736 481.573C506.814 484.631 503.813 487.616 500.732 490.526H427.32V481.573H509.736Z" fill="white"/>
<path d="M349.97 195.202C349.607 194.533 349.07 193.974 348.416 193.585C347.762 193.196 347.015 192.99 346.254 192.99H96.0966C94.975 192.993 93.9003 193.441 93.108 194.234C92.3156 195.027 91.8702 196.102 91.8693 197.223V346.872H350.488V197.223C350.493 196.516 350.314 195.82 349.97 195.202Z" fill="#448BFA"/>
<path d="M91.6427 342.82V361.287C91.6427 362.053 91.7936 362.811 92.0867 363.518C92.3798 364.226 92.8094 364.868 93.351 365.41C93.8926 365.951 94.5356 366.38 95.2433 366.673C95.9509 366.966 96.7094 367.117 97.4753 367.117H192.93V403.562H191.662C191.562 403.562 191.464 403.581 191.372 403.62C191.28 403.658 191.196 403.713 191.126 403.784C191.056 403.854 191 403.937 190.962 404.029C190.924 404.121 190.904 404.22 190.904 404.319V406.854C190.904 406.953 190.924 407.052 190.962 407.144C191 407.236 191.056 407.319 191.126 407.39C191.196 407.46 191.28 407.516 191.372 407.554C191.464 407.592 191.562 407.611 191.662 407.611H250.919C251.018 407.611 251.117 407.592 251.209 407.554C251.301 407.516 251.384 407.46 251.455 407.39C251.525 407.319 251.581 407.236 251.619 407.144C251.657 407.052 251.677 406.953 251.676 406.854V404.319C251.676 404.22 251.657 404.121 251.619 404.029C251.581 403.937 251.525 403.854 251.455 403.784C251.384 403.713 251.301 403.658 251.209 403.62C251.117 403.581 251.018 403.562 250.919 403.562H249.651V367.117H345.105C345.871 367.117 346.63 366.966 347.337 366.673C348.045 366.38 348.688 365.951 349.23 365.41C349.771 364.868 350.201 364.226 350.494 363.518C350.787 362.811 350.938 362.053 350.938 361.287V342.82H91.6427Z" fill="#448BFA"/>
<path d="M218.157 289.818C231.35 289.818 242.045 279.128 242.045 265.942C242.045 252.755 231.35 242.066 218.157 242.066C204.964 242.066 194.269 252.755 194.269 265.942C194.269 279.128 204.964 289.818 218.157 289.818Z" fill="#3CDE87"/>
<path d="M279.022 131.94H275.206C275.206 103.111 246.661 84.2201 217.863 84.2048C213.675 84.1926 209.495 84.5988 205.388 85.4174C200.764 86.3403 195.964 87.4461 191.248 88.8875C172.653 94.5846 155.408 105.597 155.408 131.94C155.404 137.055 156.056 142.151 157.346 147.101L153.653 148.062C152.283 142.797 151.591 137.38 151.593 131.94C151.593 108.923 161.047 93.1127 177.376 83.6862C185.961 78.7289 196.437 75.5334 208.44 73.9776C213.435 73.3134 218.484 73.1601 223.51 73.52C256.626 75.8994 279.022 101.281 279.022 131.94Z" fill="#3CDE87"/>
<path d="M285.378 134.052L283.875 122.948C283.504 120.144 282.152 117.561 280.059 115.657C278.716 114.416 277.107 113.496 275.356 112.967C273.604 112.439 271.755 112.315 269.949 112.606L267.561 112.934C266.907 113.02 266.277 113.235 265.707 113.566C265.138 113.897 264.639 114.338 264.241 114.864C263.84 115.387 263.547 115.985 263.378 116.622C263.209 117.26 263.168 117.924 263.257 118.578L266.729 144.157C266.872 145.2 267.34 146.171 268.065 146.934C268.791 147.696 269.738 148.211 270.773 148.405C271.08 148.467 271.391 148.497 271.704 148.497C271.929 148.497 272.153 148.482 272.376 148.451L275.046 148.093C276.674 147.877 278.241 147.33 279.651 146.487C281.06 145.644 282.282 144.521 283.241 143.189C283.447 142.899 283.646 142.602 283.829 142.296C285.259 139.801 285.805 136.896 285.378 134.052Z" fill="#3CDE87"/>
<path d="M266.019 113.399C265.319 113.74 264.709 114.242 264.241 114.864C263.84 115.387 263.547 115.985 263.378 116.622C263.209 117.26 263.168 117.924 263.257 118.578L266.729 144.157C266.872 145.2 267.34 146.171 268.065 146.934C268.791 147.696 269.738 148.211 270.773 148.405L266.019 113.399Z" fill="white"/>
<path d="M285.378 134.052L283.875 122.948C283.504 120.144 282.152 117.561 280.059 115.657L283.516 141.107C283.568 141.515 283.673 141.915 283.829 142.296C285.259 139.801 285.805 136.896 285.378 134.052Z" fill="#3F3D56"/>
<path d="M273.497 142.053C274.541 141.911 275.066 139.428 274.67 136.506C274.273 133.585 273.105 131.331 272.061 131.473C271.017 131.614 270.493 134.097 270.889 137.019C271.286 139.941 272.453 142.194 273.497 142.053Z" fill="#3F3D56"/>
<path d="M271.208 128.325C272.252 128.184 272.777 125.7 272.381 122.779C271.984 119.857 270.816 117.603 269.772 117.745C268.728 117.886 268.203 120.37 268.6 123.291C268.997 126.213 270.164 128.467 271.208 128.325Z" fill="#3F3D56"/>
<path d="M285.706 133.664C286.75 133.522 287.275 131.039 286.878 128.117C286.482 125.196 285.314 122.942 284.27 123.083C283.226 123.225 282.701 125.708 283.098 128.63C283.494 131.552 284.662 133.805 285.706 133.664Z" fill="#3F3D56"/>
<path d="M217.864 84.2048C213.675 84.1925 209.495 84.5988 205.388 85.4174C200.764 86.3402 195.964 87.4461 191.248 88.8875C183.885 88.5291 178.467 86.6224 177.376 83.6862C185.961 78.7289 196.437 75.5334 208.44 73.9775C213.435 73.3134 218.484 73.1601 223.51 73.5199C224.042 73.8317 224.502 74.2524 224.86 74.7546C225.218 75.2567 225.465 75.8288 225.586 76.4333C225.944 79.0874 222.915 81.9092 217.864 84.2048Z" fill="#3CDE87"/>
<path d="M169.151 158.404L163.275 133.991C163.066 133.11 162.6 132.311 161.938 131.694C161.275 131.076 160.445 130.668 159.552 130.521C159.299 130.482 159.044 130.461 158.788 130.46C158.429 130.461 158.07 130.505 157.72 130.59L155.446 131.139C152.519 131.847 149.991 133.686 148.419 136.254C146.847 138.822 146.358 141.909 147.06 144.836L149.693 155.788C150.294 158.366 151.726 160.676 153.768 162.362C154.099 162.629 154.445 162.876 154.805 163.102C156.084 163.903 157.511 164.44 159.001 164.681C160.491 164.922 162.015 164.862 163.481 164.505L165.747 163.956C166.347 163.816 166.91 163.554 167.403 163.186C168.136 162.652 168.694 161.912 169.005 161.06C169.316 160.209 169.367 159.284 169.151 158.404Z" fill="#3CDE87"/>
<path d="M156.833 153.862C157.858 153.615 158.128 151.092 157.438 148.225C156.748 145.358 155.358 143.234 154.334 143.481C153.31 143.727 153.039 146.251 153.729 149.117C154.419 151.984 155.809 154.108 156.833 153.862Z" fill="#3F3D56"/>
<path d="M149.203 156.15C150.227 155.903 150.498 153.38 149.808 150.513C149.118 147.646 147.728 145.522 146.703 145.769C145.679 146.015 145.408 148.539 146.098 151.405C146.789 154.272 148.179 156.396 149.203 156.15Z" fill="#3F3D56"/>
<path d="M169.525 158.312L163.649 133.9C163.42 132.947 162.915 132.082 162.197 131.415C161.479 130.747 160.58 130.307 159.613 130.147L167.632 163.491C168.424 162.911 169.027 162.11 169.363 161.188C169.7 160.266 169.756 159.266 169.525 158.312Z" fill="white"/>
<path d="M148.388 140.001C148.226 139.322 147.922 138.685 147.495 138.132C146.669 140.27 146.518 142.61 147.06 144.836L149.693 155.788C150.294 158.366 151.726 160.676 153.768 162.362L148.388 140.001Z" fill="#3F3D56"/>
</g>
<defs>
<clipPath id="clip0">
<rect width="649" height="565" fill="white"/>
</clipPath>
</defs>
</svg>
