<svg width="50" height="57" viewBox="0 0 50 57" fill="none" xmlns="http://www.w3.org/2000/svg">
<path d="M24.9888 56.3955C24.239 56.3955 23.4781 56.194 22.8178 55.8136L15.9132 51.729C14.8836 51.147 15.3872 50.9456 15.7229 50.8337C17.0994 50.3525 17.3791 50.2518 18.8451 49.4125C19.0018 49.323 19.2032 49.3565 19.3599 49.4572L24.6643 52.6018C24.8545 52.7137 25.1231 52.7137 25.3021 52.6018L45.9714 40.6726C46.1616 40.5607 46.2847 40.3368 46.2847 40.113V16.2545C46.2847 16.0195 46.1616 15.8068 45.9602 15.6837L25.3021 3.76567C25.1119 3.65376 24.8545 3.65376 24.6643 3.76567L4.01746 15.6949C3.81602 15.8068 3.69293 16.0307 3.69293 16.2657V40.113C3.69293 40.3368 3.81602 40.5607 4.01746 40.6614L9.67995 43.9291C12.7574 45.4622 14.6374 43.6605 14.6374 41.8364V18.2912C14.6374 17.9555 14.906 17.6981 15.2417 17.6981H17.8603C18.1849 17.6981 18.4646 17.9555 18.4646 18.2912V41.8476C18.4646 45.9434 16.2265 48.2934 12.3433 48.2934C11.1459 48.2934 10.2059 48.2934 7.58729 46.9953L2.17099 43.8731C0.828111 43.1009 0 41.6573 0 40.1018V16.2545C0 14.7102 0.828111 13.2554 2.17099 12.4832L22.8178 0.553939C24.1271 -0.184646 25.8617 -0.184646 27.1598 0.553939L47.829 12.4944C49.1719 13.2666 50 14.7102 50 16.2657V40.113C50 41.6573 49.1719 43.1009 47.829 43.8843L27.1598 55.8136C26.4996 56.194 25.7498 56.3955 24.9888 56.3955ZM41.6741 32.8838C41.6741 28.4188 38.6526 27.2325 32.3075 26.3932C25.8841 25.5427 25.235 25.1063 25.235 23.6068C25.235 22.3646 25.7833 20.7084 30.5394 20.7084C34.7807 20.7084 36.3474 21.626 36.9964 24.4908C37.0524 24.7594 37.2986 24.9608 37.5783 24.9608H40.2641C40.432 24.9608 40.5886 24.8937 40.7005 24.7706C40.8124 24.6475 40.8684 24.4796 40.8572 24.3118C40.4431 19.3767 37.1643 17.0826 30.5394 17.0826C24.6419 17.0826 21.128 19.5669 21.128 23.741C21.128 28.2621 24.6307 29.5154 30.282 30.075C37.0524 30.7352 37.5783 31.7312 37.5783 33.0629C37.5783 35.3682 35.7207 36.353 31.3675 36.353C25.8953 36.353 24.6979 34.9765 24.295 32.2572C24.2502 31.9662 24.004 31.7536 23.7019 31.7536H21.0273C20.6916 31.7536 20.4342 32.0222 20.4342 32.3467C20.4342 35.827 22.3254 39.9787 31.3787 39.9787C37.9141 39.9675 41.6741 37.3825 41.6741 32.8838V32.8838Z" fill="#8257E6"/>
</svg>
