<svg width="50" height="50" viewBox="0 0 50 50" fill="none" xmlns="http://www.w3.org/2000/svg">
<path d="M49.0833 18.8053C48.224 15.3568 46.5946 12.7564 43.1237 12.7564H38.6484V18.0464C38.6484 22.1535 35.1664 25.6132 31.1933 25.6132H19.274C16.0152 25.6132 13.3144 28.4033 13.3144 31.6732V43.0345C13.3144 46.271 16.1268 48.1682 19.274 49.0946C23.0462 50.1994 26.6733 50.4003 31.1933 49.0946C34.1954 48.224 37.1529 46.4719 37.1529 43.0345V38.4922H25.2448V36.9744H43.1237C46.5946 36.9744 47.878 34.5526 49.0833 30.9255C50.3333 27.1868 50.2775 23.5931 49.0833 18.8053V18.8053ZM31.941 41.5167C33.1798 41.5167 34.1843 42.5323 34.1843 43.7822C34.1843 45.0433 33.1798 46.0589 31.941 46.0589C30.7134 46.0589 29.6978 45.0322 29.6978 43.7822C29.709 42.5211 30.7134 41.5167 31.941 41.5167ZM18.7272 24.1177H30.6464C33.9611 24.1177 36.6061 21.3834 36.6061 18.0576V6.6852C36.6061 3.4487 33.8829 1.0269 30.6464 0.48004C26.651 -0.178422 22.3096 -0.14494 18.7272 0.4912C13.6827 1.38403 12.7675 3.24781 12.7675 6.69636V11.2386H24.698V12.7564H8.29223C4.82136 12.7564 1.78574 14.8434 0.837111 18.8053C-0.256605 23.3476 -0.301246 26.1823 0.837111 30.9255C1.6853 34.4522 3.70532 36.9744 7.17619 36.9744H11.272V31.5282C11.272 27.5885 14.676 24.1177 18.7272 24.1177ZM17.9794 8.20301C16.7406 8.20301 15.7362 7.18741 15.7362 5.93745C15.7473 4.67633 16.7406 3.66074 17.9794 3.66074C19.2071 3.66074 20.2227 4.68749 20.2227 5.93745C20.2227 7.18741 19.2182 8.20301 17.9794 8.20301V8.20301Z" fill="#8257E6"/>
</svg>
