<svg width="50" height="44" viewBox="0 0 50 44" fill="none" xmlns="http://www.w3.org/2000/svg">
<path d="M40.8398 14.1785C40.3125 14.0027 39.7852 13.8367 39.2578 13.6804C39.3457 13.3191 39.4238 12.9578 39.502 12.5964C40.7031 6.77612 39.9121 2.09839 37.2461 0.555419C34.6777 -0.91919 30.4883 0.614013 26.25 4.30542C25.8301 4.66675 25.4199 5.04761 25.0293 5.42847C24.7656 5.17456 24.4922 4.92065 24.2188 4.67651C19.7754 0.731201 15.3223 -0.928955 12.6563 0.623779C10.0977 2.10815 9.33594 6.51245 10.4102 12.0203C10.5176 12.5671 10.6348 13.1042 10.7715 13.6511C10.1465 13.8269 9.53125 14.0222 8.95508 14.2273C3.74023 16.0339 0 18.8855 0 21.8347C0 24.8816 3.98438 27.9382 9.4043 29.7937C9.84375 29.9402 10.2832 30.0867 10.7324 30.2136C10.5859 30.7996 10.459 31.3757 10.3418 31.9714C9.31641 37.3914 10.1172 41.6882 12.6758 43.1628C15.3125 44.6863 19.7461 43.1238 24.0625 39.3445C24.4043 39.0417 24.7461 38.7292 25.0879 38.3972C25.5176 38.8171 25.9668 39.2175 26.416 39.6082C30.5957 43.2019 34.7266 44.657 37.2754 43.1824C39.9121 41.6589 40.7715 37.0398 39.6582 31.4148C39.5703 30.9851 39.4727 30.5457 39.3652 30.0964C39.6777 30.0085 39.9805 29.9109 40.2832 29.8132C45.918 27.948 50 24.9304 50 21.8347C50 18.8757 46.1523 16.0046 40.8398 14.1785V14.1785ZM27.627 5.88745C31.2598 2.72339 34.6484 1.48315 36.1914 2.37183C37.8418 3.31909 38.4766 7.14722 37.4414 12.1765C37.373 12.5085 37.3047 12.8308 37.2168 13.1531C35.0488 12.6648 32.8516 12.3132 30.6445 12.1179C29.375 10.3015 27.9883 8.56323 26.4844 6.93237C26.8652 6.57104 27.2363 6.22925 27.627 5.88745V5.88745ZM16.3281 26.9031C16.8262 27.7527 17.334 28.6023 17.8711 29.4324C16.3477 29.2664 14.834 29.0222 13.3398 28.6999C13.7695 27.2937 14.3066 25.8386 14.9316 24.3542C15.3809 25.2136 15.8398 26.0632 16.3281 26.9031V26.9031ZM13.3691 15.155C14.7754 14.8425 16.2695 14.5886 17.8223 14.3933C17.3047 15.2039 16.7969 16.0339 16.3184 16.8738C15.8398 17.7039 15.3711 18.5535 14.9316 19.4128C14.3164 17.9578 13.7988 16.532 13.3691 15.155ZM16.0449 21.8835C16.6895 20.5359 17.3926 19.2175 18.1348 17.9187C18.877 16.6199 19.6777 15.3601 20.5176 14.1199C21.9824 14.0124 23.4766 13.9539 25 13.9539C26.5234 13.9539 28.0273 14.0124 29.4824 14.1199C30.3125 15.3503 31.1035 16.6101 31.8555 17.8992C32.6074 19.1882 33.3105 20.5066 33.9746 21.8445C33.3203 23.1921 32.6172 24.5203 31.8652 25.8289C31.123 27.1277 30.332 28.3874 29.502 29.6374C28.0469 29.7449 26.5332 29.7937 25 29.7937C23.4668 29.7937 21.9824 29.7449 20.5469 29.657C19.6973 28.4167 18.8965 27.1472 18.1445 25.8484C17.3926 24.5496 16.6992 23.2312 16.0449 21.8835ZM33.6816 26.8835C34.1797 26.0242 34.6484 25.155 35.1074 24.2761C35.7324 25.6921 36.2793 27.1277 36.7578 28.6023C35.2441 28.9441 33.7109 29.2078 32.168 29.3835C32.6953 28.5632 33.1934 27.7234 33.6816 26.8835ZM35.0879 19.4128C34.6289 18.5535 34.1602 17.6941 33.6719 16.8542C33.1934 16.0242 32.6953 15.2039 32.1777 14.3933C33.75 14.5886 35.2539 14.8523 36.6602 15.1746C36.2109 16.6199 35.6836 18.0261 35.0879 19.4128V19.4128ZM25.0195 8.42651C26.0449 9.53979 27.0117 10.7117 27.9102 11.9226C25.9766 11.8347 24.0332 11.8347 22.0996 11.9226C23.0566 10.6628 24.043 9.49097 25.0195 8.42651ZM13.6914 2.44018C15.332 1.48315 18.9746 2.85034 22.8125 6.24878C23.0566 6.46362 23.3008 6.698 23.5547 6.93237C22.041 8.56323 20.6445 10.3015 19.3652 12.1179C17.1582 12.3132 14.9707 12.655 12.8027 13.1335C12.6758 12.6355 12.5684 12.1277 12.4609 11.6199C11.543 6.89331 12.1484 3.32886 13.6914 2.44018V2.44018ZM11.2988 28.1824C10.8887 28.0652 10.4883 27.9382 10.0879 27.8015C8.00781 27.1472 5.64453 26.1121 3.93555 24.7546C2.94922 24.071 2.28516 23.0164 2.09961 21.8347C2.09961 20.0476 5.18555 17.7624 9.63867 16.2097C10.1953 16.0144 10.7617 15.8386 11.3281 15.6726C11.9922 17.7917 12.793 19.8718 13.7207 21.8835C12.7832 23.9246 11.9727 26.0339 11.2988 28.1824V28.1824ZM22.6855 37.7527C21.0742 39.2273 19.209 40.3992 17.1777 41.1999C16.0937 41.7175 14.8438 41.7664 13.7305 41.3269C12.1777 40.4285 11.5332 36.9812 12.4121 32.3425C12.5195 31.7957 12.6367 31.2488 12.7734 30.7117C14.9609 31.1804 17.168 31.5027 19.4043 31.6687C20.6934 33.4949 22.1094 35.2429 23.623 36.8835C23.3105 37.1863 22.998 37.4792 22.6855 37.7527ZM25.0781 35.3796C24.082 34.3054 23.0859 33.114 22.1191 31.8347C23.0566 31.8738 24.0234 31.8933 25 31.8933C26.0059 31.8933 26.9922 31.8738 27.9687 31.8249C27.0703 33.0652 26.1035 34.2468 25.0781 35.3796V35.3796ZM37.8418 38.3093C37.7539 39.5007 37.168 40.614 36.2305 41.366C34.6777 42.2644 31.3672 41.0925 27.793 38.0261C27.3828 37.6746 26.9727 37.2937 26.5527 36.9031C28.0469 35.2527 29.4238 33.5046 30.6738 31.6687C32.9102 31.4831 35.1367 31.1414 37.334 30.6433C37.4316 31.0437 37.5195 31.4441 37.5977 31.8347C38.0762 33.9441 38.1543 36.1414 37.8418 38.3093V38.3093ZM39.6191 27.8113C39.3457 27.8992 39.0723 27.9871 38.7891 28.0652C38.1055 25.9363 37.2656 23.8562 36.2988 21.8347C37.2363 19.8425 38.0273 17.7917 38.6914 15.6921C39.1992 15.8386 39.6875 15.9949 40.1563 16.1511C44.707 17.7136 47.9004 20.0378 47.9004 21.8152C47.9004 23.7292 44.4922 26.1999 39.6191 27.8113ZM25 26.3464C27.4707 26.3464 29.4727 24.3445 29.4727 21.8738C29.4727 19.4031 27.4707 17.4011 25 17.4011C22.5293 17.4011 20.5273 19.4031 20.5273 21.8738C20.5273 24.3445 22.5293 26.3464 25 26.3464Z" fill="#8257E6"/>
</svg>
