<svg width="51" height="51" viewBox="0 0 51 51" fill="none" xmlns="http://www.w3.org/2000/svg">
<path d="M0 25.0016V50.0016H50.0016V0H0V25.0016ZM40.2945 23.0094C41.5641 23.3266 42.5328 23.8906 43.4219 24.8109C43.8828 25.3031 44.5648 26.2 44.6203 26.4141C44.6359 26.4766 42.4617 27.9375 41.1438 28.7555C41.0969 28.7867 40.9055 28.5813 40.6906 28.2633C40.0477 27.3258 39.3734 26.9219 38.3414 26.8508C36.8258 26.7477 35.8414 27.5414 35.857 28.8664C35.857 29.2555 35.9117 29.4852 36.0711 29.8039C36.4047 30.4945 37.0242 30.907 38.968 31.7492C42.5477 33.2883 44.0789 34.3039 45.0305 35.7492C46.093 37.3602 46.332 39.932 45.6102 41.8445C44.8164 43.9242 42.8484 45.3367 40.0789 45.8055C39.2219 45.9563 37.1898 45.9328 36.2695 45.7664C34.2617 45.4094 32.357 44.4172 31.182 43.1156C30.7211 42.6078 29.825 41.282 29.8805 41.1859C29.9039 41.1547 30.1109 41.0273 30.3414 40.8922L32.1984 39.8219L33.6359 38.9883L33.9375 39.4336C34.3578 40.0766 35.2789 40.957 35.8344 41.2508C37.4297 42.0922 39.6203 41.9727 40.6992 41.0047C41.1602 40.5844 41.35 40.1477 41.35 39.5047C41.35 38.925 41.2797 38.6711 40.9773 38.2352C40.5883 37.6805 39.7945 37.2117 37.5398 36.2352C34.9602 35.1242 33.8492 34.4336 32.8336 33.3383C32.2461 32.7031 31.6906 31.6875 31.4602 30.8383C31.2695 30.132 31.2219 28.3617 31.3727 27.6477C31.9039 25.1477 33.7852 23.4172 36.5 22.9016C37.3813 22.7352 39.4297 22.7984 40.2938 23.0125L40.2945 23.0094ZM28.5562 25.0953L28.5719 27.1422H22.0641V45.6344H17.4609V27.1422H10.9531V25.1344L11.0078 23.0719C11.0313 23.0406 14.9922 23.025 19.7938 23.0328L28.532 23.0563L28.5562 25.0953Z" fill="#8257E6"/>
</svg>
